# xmcd
#
# Track frame offsets:
#	150
#	14740
#	33965
#	47625
#	61667
#	77679
#	94675
#	106385
#	122565
#	140687
#	156855
#	165805
#	178652
#	193242
#
# Disc length: 2763 seconds
#
# Revision: 3
# Processed by: cddbd v1.5.2PL0 Copyright (c) Steve Scherf et al.
# Submitted via: audiograbber 1.83.01
#
DISCID=b00ac90e
DTITLE=Vários - Sertanejas vol. 03 - As Mais Belas Canções
DYEAR=1995
DGENRE=Sertanejo
TTITLE0=coro de boi - Tonico and Tinoco
TTITLE1=chitãozinho e chororó - Tonico and Tinoco
TTITLE2=empreitada perigosa - Jaco and Jacozinho
TTITLE3=mágoa de carreiro - Rolando Boldrin
TTITLE4=poeta competente - Cacique and Pajé
TTITLE5=ferreirinha - Zé Carreiro and Carreirinho
TTITLE6=boiadeiro punho de aço - P. Bento and Zé da Estrada
TTITLE7=prato do dia - Tião Carreiro and Pardinho.
TTITLE8=travessia do araguaia - Biá and Dino Franco
TTITLE9=meu martírio - Duduca and Dalvan
TTITLE10=adeus mariana - Os Filhos de Goiás
TTITLE11=viola sentida - Sulino and Marrueiro
TTITLE12=chalana - Irmãs Castro
TTITLE13=pingo d'água - Torres and Florencio
EXTD=
EXTT0=
EXTT1=
EXTT2=
EXTT3=
EXTT4=
EXTT5=
EXTT6=
EXTT7=
EXTT8=
EXTT9=
EXTT10=
EXTT11=
EXTT12=
EXTT13=
PLAYORDER=
